<?xml version="1.0" encoding="UTF-8"?>
<svg xmlns="http://www.w3.org/2000/svg" xmlns:xlink="http://www.w3.org/1999/xlink"
     width="2480" height="3508" viewBox="0 -3508 2480 3508">
<defs>
<marker markerWidth="4.0" markerHeight="4.0" viewBox="-0.1 -0.5 1.0 1.0" orient="auto" id="d0">
<path d="M-0.1,0.5 L-0.1,-0.5 L0.9,0 Z" fill="red" />
</marker>
<marker markerWidth="4.0" markerHeight="4.0" viewBox="-0.1 -0.5 1.0 1.0" orient="auto" id="d1">
<path d="M-0.1,0.5 L-0.1,-0.5 L0.9,0 Z" fill="green" />
</marker>
<marker markerWidth="4.0" markerHeight="4.0" viewBox="-0.1 -0.5 1.0 1.0" orient="auto" id="d2">
<path d="M-0.1,0.5 L-0.1,-0.5 L0.9,0 Z" fill="orange" />
</marker>
<marker markerWidth="4.0" markerHeight="4.0" viewBox="-0.1 -0.5 1.0 1.0" orient="auto" id="d3">
<path d="M-0.1,0.5 L-0.1,-0.5 L0.9,0 Z" fill="blue" />
</marker>
</defs>
<rect x="0" y="-3508" width="2480" height="3508" fill="#ffffff">
<title>Background</title>
</rect>
<text x="1240.0" y="-3212.0" font-size="100" fill="black" text-anchor="middle" dy="0.5em">Skout Report</text>
<text x="620.0" y="-3092.0" font-size="60" fill="black"><tspan x="620.0" dy="0em">Home: TeamA</tspan><tspan x="620.0" dy="1em">Away: TeamB</tspan></text>
<text x="1440.0" y="-3092.0" font-size="60" fill="black"><tspan x="1440.0" dy="0em">Date: 01.01.2021</tspan><tspan x="1440.0" dy="1em">Score: 11 - 22</tspan></text>
<path d="M237.0,-2436.8 L905.6666666666666,-2436.8 L905.6666666666666,-2972.0 L237.0,-2972.0 Z" stroke="black" stroke-width="4" fill="none">
<title>PlayBorder</title>
</path>
<path d="M237.0,-2615.2000000000003 L905.6666666666666,-2615.2000000000003" stroke-width="2" stroke="black" />
<text x="247.0" y="-2605.2000000000003" font-size="30" fill="black" dy="1em">1st:</text>
<text x="327.0" y="-2605.2000000000003" font-size="30" fill="black" dy="1em">1</text>
<text x="247.0" y="-2575.2000000000003" font-size="30" fill="black" dy="1em">2nd:</text>
<text x="327.0" y="-2575.2000000000003" font-size="30" fill="black" dy="1em">0</text>
<text x="247.0" y="-2545.2000000000003" font-size="30" fill="black" dy="1em">3rd:</text>
<text x="327.0" y="-2545.2000000000003" font-size="30" fill="black" dy="1em">0</text>
<text x="247.0" y="-2515.2000000000003" font-size="30" fill="black" dy="1em">4th:</text>
<text x="327.0" y="-2515.2000000000003" font-size="30" fill="black" dy="1em">0</text>
<text x="247.0" y="-2485.2000000000003" font-size="30" fill="black" dy="1em">PAT:</text>
<text x="327.0" y="-2485.2000000000003" font-size="30" fill="black" dy="1em">0</text>
<text x="407.0" y="-2605.2000000000003" font-size="30" fill="black" dy="1em">Total:</text>
<text x="607.0" y="-2605.2000000000003" font-size="30" fill="black" dy="1em">1</text>
<text x="407.0" y="-2575.2000000000003" font-size="30" fill="black" dy="1em">Strong right:</text>
<text x="607.0" y="-2575.2000000000003" font-size="30" fill="black" dy="1em">1</text>
<text x="407.0" y="-2545.2000000000003" font-size="30" fill="black" dy="1em">Strong left:</text>
<text x="607.0" y="-2545.2000000000003" font-size="30" fill="black" dy="1em">0</text>
<text x="407.0" y="-2485.2000000000003" font-size="30" fill="black" dy="1em">vid#:</text>
<text x="507.0" y="-2485.2000000000003" font-size="30" fill="black" dy="1em">[0]</text>
<text x="247.0" y="-2625.2000000000003" font-size="30" fill="black" dy="0em">Formations: A tight</text>
<path d="M297.0,-2685.2000000000003 L845.6666666666666,-2685.2000000000003" stroke-width="3" stroke="black" />
<path d="M297.0,-2760.8 L845.6666666666666,-2760.8" stroke-width="2" stroke="gray" />
<path d="M297.0,-2836.4 L845.6666666666666,-2836.4" stroke-width="2" stroke="gray" />
<text x="845.6666666666666" y="-2760.8" font-size="30" dy="0.4em">5</text>
<text x="845.6666666666666" y="-2836.4" font-size="30" dy="0.4em">10</text>
<text x="297.0" y="-2912.0" font-size="30" font-weight="bold" dy="0em">#1</text>
<path d="M357.4799999999999,-2685.2000000000003 L357.4799999999999,-2760.8 L327.23999999999995,-2760.8" stroke="red" stroke-width="10" fill="none" marker-end="url(#d0)" />
<circle cx="357.4799999999999" cy="-2685.2000000000003" r="15" stroke-width="2" stroke="black" close="True" fill="red" />
<path d="M571.3333333333333,-2685.2000000000003 L510.85333333333335,-2700.32" stroke="green" stroke-width="10" fill="none" marker-end="url(#d1)" />
<path d="M571.3333333333333,-2702.520508075689 L551.3333333333333,-2670.2000000000003 L591.3333333333333,-2670.2000000000003 Z" stroke-width="2" stroke="black" fill="green" />
<path d="M678.26,-2685.2000000000003 L678.26,-2760.8 L708.5,-2760.8" stroke="orange" stroke-width="10" fill="none" marker-end="url(#d2)" />
<circle cx="678.26" cy="-2685.2000000000003" r="15" stroke-width="2" stroke="black" close="True" fill="orange" />
<path d="M785.1866666666667,-2685.2000000000003 L785.1866666666667,-2806.1600000000003 L739.8266666666668,-2866.64" stroke="blue" stroke-width="10" fill="none" marker-end="url(#d3)" />
<circle cx="785.1866666666667" cy="-2685.2000000000003" r="15" stroke-width="2" stroke="black" close="True" fill="blue" />
<path d="M905.6666666666666,-2436.8 L1574.3333333333333,-2436.8 L1574.3333333333333,-2972.0 L905.6666666666666,-2972.0 Z" stroke="black" stroke-width="4" fill="none">
<title>PlayBorder</title>
</path>
<path d="M905.6666666666666,-2615.2000000000003 L1574.3333333333333,-2615.2000000000003" stroke-width="2" stroke="black" />
<text x="915.6666666666666" y="-2605.2000000000003" font-size="30" fill="black" dy="1em">1st:</text>
<text x="915.6666666666666" y="-2575.2000000000003" font-size="30" fill="black" dy="1em">2nd:</text>
<text x="915.6666666666666" y="-2545.2000000000003" font-size="30" fill="black" dy="1em">3rd:</text>
<text x="915.6666666666666" y="-2515.2000000000003" font-size="30" fill="black" dy="1em">4th:</text>
<text x="915.6666666666666" y="-2485.2000000000003" font-size="30" fill="black" dy="1em">PAT:</text>
<text x="1075.6666666666665" y="-2605.2000000000003" font-size="30" fill="black" dy="1em">Total:</text>
<text x="1075.6666666666665" y="-2575.2000000000003" font-size="30" fill="black" dy="1em">Strong right:</text>
<text x="1075.6666666666665" y="-2545.2000000000003" font-size="30" fill="black" dy="1em">Strong left:</text>
<text x="1075.6666666666665" y="-2485.2000000000003" font-size="30" fill="black" dy="1em">vid#:</text>
<path d="M965.6666666666666,-2685.2000000000003 L1514.3333333333333,-2685.2000000000003" stroke-width="3" stroke="black" />
<path d="M965.6666666666666,-2760.8 L1514.3333333333333,-2760.8" stroke-width="2" stroke="gray" />
<path d="M965.6666666666666,-2836.4 L1514.3333333333333,-2836.4" stroke-width="2" stroke="gray" />
<text x="1514.3333333333333" y="-2760.8" font-size="30" dy="0.4em">5</text>
<text x="1514.3333333333333" y="-2836.4" font-size="30" dy="0.4em">10</text>
<path d="M1574.3333333333333,-2436.8 L2243.0,-2436.8 L2243.0,-2972.0 L1574.3333333333333,-2972.0 Z" stroke="black" stroke-width="4" fill="none">
<title>PlayBorder</title>
</path>
<path d="M1574.3333333333333,-2615.2000000000003 L2243.0,-2615.2000000000003" stroke-width="2" stroke="black" />
<text x="1584.3333333333333" y="-2605.2000000000003" font-size="30" fill="black" dy="1em">1st:</text>
<text x="1584.3333333333333" y="-2575.2000000000003" font-size="30" fill="black" dy="1em">2nd:</text>
<text x="1584.3333333333333" y="-2545.2000000000003" font-size="30" fill="black" dy="1em">3rd:</text>
<text x="1584.3333333333333" y="-2515.2000000000003" font-size="30" fill="black" dy="1em">4th:</text>
<text x="1584.3333333333333" y="-2485.2000000000003" font-size="30" fill="black" dy="1em">PAT:</text>
<text x="1744.3333333333333" y="-2605.2000000000003" font-size="30" fill="black" dy="1em">Total:</text>
<text x="1744.3333333333333" y="-2575.2000000000003" font-size="30" fill="black" dy="1em">Strong right:</text>
<text x="1744.3333333333333" y="-2545.2000000000003" font-size="30" fill="black" dy="1em">Strong left:</text>
<text x="1744.3333333333333" y="-2485.2000000000003" font-size="30" fill="black" dy="1em">vid#:</text>
<path d="M1634.3333333333333,-2685.2000000000003 L2183.0,-2685.2000000000003" stroke-width="3" stroke="black" />
<path d="M1634.3333333333333,-2760.8 L2183.0,-2760.8" stroke-width="2" stroke="gray" />
<path d="M1634.3333333333333,-2836.4 L2183.0,-2836.4" stroke-width="2" stroke="gray" />
<text x="2183.0" y="-2760.8" font-size="30" dy="0.4em">5</text>
<text x="2183.0" y="-2836.4" font-size="30" dy="0.4em">10</text>
<path d="M237.0,-1901.6 L905.6666666666666,-1901.6 L905.6666666666666,-2436.8 L237.0,-2436.8 Z" stroke="black" stroke-width="4" fill="none">
<title>PlayBorder</title>
</path>
<path d="M237.0,-2080.0 L905.6666666666666,-2080.0" stroke-width="2" stroke="black" />
<text x="247.0" y="-2070.0" font-size="30" fill="black" dy="1em">1st:</text>
<text x="247.0" y="-2040.0" font-size="30" fill="black" dy="1em">2nd:</text>
<text x="247.0" y="-2010.0" font-size="30" fill="black" dy="1em">3rd:</text>
<text x="247.0" y="-1980.0" font-size="30" fill="black" dy="1em">4th:</text>
<text x="247.0" y="-1950.0" font-size="30" fill="black" dy="1em">PAT:</text>
<text x="407.0" y="-2070.0" font-size="30" fill="black" dy="1em">Total:</text>
<text x="407.0" y="-2040.0" font-size="30" fill="black" dy="1em">Strong right:</text>
<text x="407.0" y="-2010.0" font-size="30" fill="black" dy="1em">Strong left:</text>
<text x="407.0" y="-1950.0" font-size="30" fill="black" dy="1em">vid#:</text>
<path d="M297.0,-2150.0 L845.6666666666666,-2150.0" stroke-width="3" stroke="black" />
<path d="M297.0,-2225.6 L845.6666666666666,-2225.6" stroke-width="2" stroke="gray" />
<path d="M297.0,-2301.2000000000003 L845.6666666666666,-2301.2000000000003" stroke-width="2" stroke="gray" />
<text x="845.6666666666666" y="-2225.6" font-size="30" dy="0.4em">5</text>
<text x="845.6666666666666" y="-2301.2000000000003" font-size="30" dy="0.4em">10</text>
<path d="M905.6666666666666,-1901.6 L1574.3333333333333,-1901.6 L1574.3333333333333,-2436.8 L905.6666666666666,-2436.8 Z" stroke="black" stroke-width="4" fill="none">
<title>PlayBorder</title>
</path>
<path d="M905.6666666666666,-2080.0 L1574.3333333333333,-2080.0" stroke-width="2" stroke="black" />
<text x="915.6666666666666" y="-2070.0" font-size="30" fill="black" dy="1em">1st:</text>
<text x="915.6666666666666" y="-2040.0" font-size="30" fill="black" dy="1em">2nd:</text>
<text x="915.6666666666666" y="-2010.0" font-size="30" fill="black" dy="1em">3rd:</text>
<text x="915.6666666666666" y="-1980.0" font-size="30" fill="black" dy="1em">4th:</text>
<text x="915.6666666666666" y="-1950.0" font-size="30" fill="black" dy="1em">PAT:</text>
<text x="1075.6666666666665" y="-2070.0" font-size="30" fill="black" dy="1em">Total:</text>
<text x="1075.6666666666665" y="-2040.0" font-size="30" fill="black" dy="1em">Strong right:</text>
<text x="1075.6666666666665" y="-2010.0" font-size="30" fill="black" dy="1em">Strong left:</text>
<text x="1075.6666666666665" y="-1950.0" font-size="30" fill="black" dy="1em">vid#:</text>
<path d="M965.6666666666666,-2150.0 L1514.3333333333333,-2150.0" stroke-width="3" stroke="black" />
<path d="M965.6666666666666,-2225.6 L1514.3333333333333,-2225.6" stroke-width="2" stroke="gray" />
<path d="M965.6666666666666,-2301.2000000000003 L1514.3333333333333,-2301.2000000000003" stroke-width="2" stroke="gray" />
<text x="1514.3333333333333" y="-2225.6" font-size="30" dy="0.4em">5</text>
<text x="1514.3333333333333" y="-2301.2000000000003" font-size="30" dy="0.4em">10</text>
<path d="M1574.3333333333333,-1901.6 L2243.0,-1901.6 L2243.0,-2436.8 L1574.3333333333333,-2436.8 Z" stroke="black" stroke-width="4" fill="none">
<title>PlayBorder</title>
</path>
<path d="M1574.3333333333333,-2080.0 L2243.0,-2080.0" stroke-width="2" stroke="black" />
<text x="1584.3333333333333" y="-2070.0" font-size="30" fill="black" dy="1em">1st:</text>
<text x="1584.3333333333333" y="-2040.0" font-size="30" fill="black" dy="1em">2nd:</text>
<text x="1584.3333333333333" y="-2010.0" font-size="30" fill="black" dy="1em">3rd:</text>
<text x="1584.3333333333333" y="-1980.0" font-size="30" fill="black" dy="1em">4th:</text>
<text x="1584.3333333333333" y="-1950.0" font-size="30" fill="black" dy="1em">PAT:</text>
<text x="1744.3333333333333" y="-2070.0" font-size="30" fill="black" dy="1em">Total:</text>
<text x="1744.3333333333333" y="-2040.0" font-size="30" fill="black" dy="1em">Strong right:</text>
<text x="1744.3333333333333" y="-2010.0" font-size="30" fill="black" dy="1em">Strong left:</text>
<text x="1744.3333333333333" y="-1950.0" font-size="30" fill="black" dy="1em">vid#:</text>
<path d="M1634.3333333333333,-2150.0 L2183.0,-2150.0" stroke-width="3" stroke="black" />
<path d="M1634.3333333333333,-2225.6 L2183.0,-2225.6" stroke-width="2" stroke="gray" />
<path d="M1634.3333333333333,-2301.2000000000003 L2183.0,-2301.2000000000003" stroke-width="2" stroke="gray" />
<text x="2183.0" y="-2225.6" font-size="30" dy="0.4em">5</text>
<text x="2183.0" y="-2301.2000000000003" font-size="30" dy="0.4em">10</text>
<path d="M237.0,-1366.3999999999999 L905.6666666666666,-1366.3999999999999 L905.6666666666666,-1901.6 L237.0,-1901.6 Z" stroke="black" stroke-width="4" fill="none">
<title>PlayBorder</title>
</path>
<path d="M237.0,-1544.8 L905.6666666666666,-1544.8" stroke-width="2" stroke="black" />
<text x="247.0" y="-1534.8" font-size="30" fill="black" dy="1em">1st:</text>
<text x="247.0" y="-1504.8" font-size="30" fill="black" dy="1em">2nd:</text>
<text x="247.0" y="-1474.8" font-size="30" fill="black" dy="1em">3rd:</text>
<text x="247.0" y="-1444.8" font-size="30" fill="black" dy="1em">4th:</text>
<text x="247.0" y="-1414.8" font-size="30" fill="black" dy="1em">PAT:</text>
<text x="407.0" y="-1534.8" font-size="30" fill="black" dy="1em">Total:</text>
<text x="407.0" y="-1504.8" font-size="30" fill="black" dy="1em">Strong right:</text>
<text x="407.0" y="-1474.8" font-size="30" fill="black" dy="1em">Strong left:</text>
<text x="407.0" y="-1414.8" font-size="30" fill="black" dy="1em">vid#:</text>
<path d="M297.0,-1614.8 L845.6666666666666,-1614.8" stroke-width="3" stroke="black" />
<path d="M297.0,-1690.3999999999999 L845.6666666666666,-1690.3999999999999" stroke-width="2" stroke="gray" />
<path d="M297.0,-1766.0 L845.6666666666666,-1766.0" stroke-width="2" stroke="gray" />
<text x="845.6666666666666" y="-1690.3999999999999" font-size="30" dy="0.4em">5</text>
<text x="845.6666666666666" y="-1766.0" font-size="30" dy="0.4em">10</text>
<path d="M905.6666666666666,-1366.3999999999999 L1574.3333333333333,-1366.3999999999999 L1574.3333333333333,-1901.6 L905.6666666666666,-1901.6 Z" stroke="black" stroke-width="4" fill="none">
<title>PlayBorder</title>
</path>
<path d="M905.6666666666666,-1544.8 L1574.3333333333333,-1544.8" stroke-width="2" stroke="black" />
<text x="915.6666666666666" y="-1534.8" font-size="30" fill="black" dy="1em">1st:</text>
<text x="915.6666666666666" y="-1504.8" font-size="30" fill="black" dy="1em">2nd:</text>
<text x="915.6666666666666" y="-1474.8" font-size="30" fill="black" dy="1em">3rd:</text>
<text x="915.6666666666666" y="-1444.8" font-size="30" fill="black" dy="1em">4th:</text>
<text x="915.6666666666666" y="-1414.8" font-size="30" fill="black" dy="1em">PAT:</text>
<text x="1075.6666666666665" y="-1534.8" font-size="30" fill="black" dy="1em">Total:</text>
<text x="1075.6666666666665" y="-1504.8" font-size="30" fill="black" dy="1em">Strong right:</text>
<text x="1075.6666666666665" y="-1474.8" font-size="30" fill="black" dy="1em">Strong left:</text>
<text x="1075.6666666666665" y="-1414.8" font-size="30" fill="black" dy="1em">vid#:</text>
<path d="M965.6666666666666,-1614.8 L1514.3333333333333,-1614.8" stroke-width="3" stroke="black" />
<path d="M965.6666666666666,-1690.3999999999999 L1514.3333333333333,-1690.3999999999999" stroke-width="2" stroke="gray" />
<path d="M965.6666666666666,-1766.0 L1514.3333333333333,-1766.0" stroke-width="2" stroke="gray" />
<text x="1514.3333333333333" y="-1690.3999999999999" font-size="30" dy="0.4em">5</text>
<text x="1514.3333333333333" y="-1766.0" font-size="30" dy="0.4em">10</text>
<path d="M1574.3333333333333,-1366.3999999999999 L2243.0,-1366.3999999999999 L2243.0,-1901.6 L1574.3333333333333,-1901.6 Z" stroke="black" stroke-width="4" fill="none">
<title>PlayBorder</title>
</path>
<path d="M1574.3333333333333,-1544.8 L2243.0,-1544.8" stroke-width="2" stroke="black" />
<text x="1584.3333333333333" y="-1534.8" font-size="30" fill="black" dy="1em">1st:</text>
<text x="1584.3333333333333" y="-1504.8" font-size="30" fill="black" dy="1em">2nd:</text>
<text x="1584.3333333333333" y="-1474.8" font-size="30" fill="black" dy="1em">3rd:</text>
<text x="1584.3333333333333" y="-1444.8" font-size="30" fill="black" dy="1em">4th:</text>
<text x="1584.3333333333333" y="-1414.8" font-size="30" fill="black" dy="1em">PAT:</text>
<text x="1744.3333333333333" y="-1534.8" font-size="30" fill="black" dy="1em">Total:</text>
<text x="1744.3333333333333" y="-1504.8" font-size="30" fill="black" dy="1em">Strong right:</text>
<text x="1744.3333333333333" y="-1474.8" font-size="30" fill="black" dy="1em">Strong left:</text>
<text x="1744.3333333333333" y="-1414.8" font-size="30" fill="black" dy="1em">vid#:</text>
<path d="M1634.3333333333333,-1614.8 L2183.0,-1614.8" stroke-width="3" stroke="black" />
<path d="M1634.3333333333333,-1690.3999999999999 L2183.0,-1690.3999999999999" stroke-width="2" stroke="gray" />
<path d="M1634.3333333333333,-1766.0 L2183.0,-1766.0" stroke-width="2" stroke="gray" />
<text x="2183.0" y="-1690.3999999999999" font-size="30" dy="0.4em">5</text>
<text x="2183.0" y="-1766.0" font-size="30" dy="0.4em">10</text>
<path d="M237.0,-831.1999999999998 L905.6666666666666,-831.1999999999998 L905.6666666666666,-1366.3999999999999 L237.0,-1366.3999999999999 Z" stroke="black" stroke-width="4" fill="none">
<title>PlayBorder</title>
</path>
<path d="M237.0,-1009.5999999999999 L905.6666666666666,-1009.5999999999999" stroke-width="2" stroke="black" />
<text x="247.0" y="-999.5999999999999" font-size="30" fill="black" dy="1em">1st:</text>
<text x="247.0" y="-969.5999999999999" font-size="30" fill="black" dy="1em">2nd:</text>
<text x="247.0" y="-939.5999999999999" font-size="30" fill="black" dy="1em">3rd:</text>
<text x="247.0" y="-909.5999999999999" font-size="30" fill="black" dy="1em">4th:</text>
<text x="247.0" y="-879.5999999999999" font-size="30" fill="black" dy="1em">PAT:</text>
<text x="407.0" y="-999.5999999999999" font-size="30" fill="black" dy="1em">Total:</text>
<text x="407.0" y="-969.5999999999999" font-size="30" fill="black" dy="1em">Strong right:</text>
<text x="407.0" y="-939.5999999999999" font-size="30" fill="black" dy="1em">Strong left:</text>
<text x="407.0" y="-879.5999999999999" font-size="30" fill="black" dy="1em">vid#:</text>
<path d="M297.0,-1079.6 L845.6666666666666,-1079.6" stroke-width="3" stroke="black" />
<path d="M297.0,-1155.1999999999998 L845.6666666666666,-1155.1999999999998" stroke-width="2" stroke="gray" />
<path d="M297.0,-1230.8 L845.6666666666666,-1230.8" stroke-width="2" stroke="gray" />
<text x="845.6666666666666" y="-1155.1999999999998" font-size="30" dy="0.4em">5</text>
<text x="845.6666666666666" y="-1230.8" font-size="30" dy="0.4em">10</text>
<path d="M905.6666666666666,-831.1999999999998 L1574.3333333333333,-831.1999999999998 L1574.3333333333333,-1366.3999999999999 L905.6666666666666,-1366.3999999999999 Z" stroke="black" stroke-width="4" fill="none">
<title>PlayBorder</title>
</path>
<path d="M905.6666666666666,-1009.5999999999999 L1574.3333333333333,-1009.5999999999999" stroke-width="2" stroke="black" />
<text x="915.6666666666666" y="-999.5999999999999" font-size="30" fill="black" dy="1em">1st:</text>
<text x="915.6666666666666" y="-969.5999999999999" font-size="30" fill="black" dy="1em">2nd:</text>
<text x="915.6666666666666" y="-939.5999999999999" font-size="30" fill="black" dy="1em">3rd:</text>
<text x="915.6666666666666" y="-909.5999999999999" font-size="30" fill="black" dy="1em">4th:</text>
<text x="915.6666666666666" y="-879.5999999999999" font-size="30" fill="black" dy="1em">PAT:</text>
<text x="1075.6666666666665" y="-999.5999999999999" font-size="30" fill="black" dy="1em">Total:</text>
<text x="1075.6666666666665" y="-969.5999999999999" font-size="30" fill="black" dy="1em">Strong right:</text>
<text x="1075.6666666666665" y="-939.5999999999999" font-size="30" fill="black" dy="1em">Strong left:</text>
<text x="1075.6666666666665" y="-879.5999999999999" font-size="30" fill="black" dy="1em">vid#:</text>
<path d="M965.6666666666666,-1079.6 L1514.3333333333333,-1079.6" stroke-width="3" stroke="black" />
<path d="M965.6666666666666,-1155.1999999999998 L1514.3333333333333,-1155.1999999999998" stroke-width="2" stroke="gray" />
<path d="M965.6666666666666,-1230.8 L1514.3333333333333,-1230.8" stroke-width="2" stroke="gray" />
<text x="1514.3333333333333" y="-1155.1999999999998" font-size="30" dy="0.4em">5</text>
<text x="1514.3333333333333" y="-1230.8" font-size="30" dy="0.4em">10</text>
<path d="M1574.3333333333333,-831.1999999999998 L2243.0,-831.1999999999998 L2243.0,-1366.3999999999999 L1574.3333333333333,-1366.3999999999999 Z" stroke="black" stroke-width="4" fill="none">
<title>PlayBorder</title>
</path>
<path d="M1574.3333333333333,-1009.5999999999999 L2243.0,-1009.5999999999999" stroke-width="2" stroke="black" />
<text x="1584.3333333333333" y="-999.5999999999999" font-size="30" fill="black" dy="1em">1st:</text>
<text x="1584.3333333333333" y="-969.5999999999999" font-size="30" fill="black" dy="1em">2nd:</text>
<text x="1584.3333333333333" y="-939.5999999999999" font-size="30" fill="black" dy="1em">3rd:</text>
<text x="1584.3333333333333" y="-909.5999999999999" font-size="30" fill="black" dy="1em">4th:</text>
<text x="1584.3333333333333" y="-879.5999999999999" font-size="30" fill="black" dy="1em">PAT:</text>
<text x="1744.3333333333333" y="-999.5999999999999" font-size="30" fill="black" dy="1em">Total:</text>
<text x="1744.3333333333333" y="-969.5999999999999" font-size="30" fill="black" dy="1em">Strong right:</text>
<text x="1744.3333333333333" y="-939.5999999999999" font-size="30" fill="black" dy="1em">Strong left:</text>
<text x="1744.3333333333333" y="-879.5999999999999" font-size="30" fill="black" dy="1em">vid#:</text>
<path d="M1634.3333333333333,-1079.6 L2183.0,-1079.6" stroke-width="3" stroke="black" />
<path d="M1634.3333333333333,-1155.1999999999998 L2183.0,-1155.1999999999998" stroke-width="2" stroke="gray" />
<path d="M1634.3333333333333,-1230.8 L2183.0,-1230.8" stroke-width="2" stroke="gray" />
<text x="2183.0" y="-1155.1999999999998" font-size="30" dy="0.4em">5</text>
<text x="2183.0" y="-1230.8" font-size="30" dy="0.4em">10</text>
<path d="M237.0,-296.0 L905.6666666666666,-296.0 L905.6666666666666,-831.1999999999998 L237.0,-831.1999999999998 Z" stroke="black" stroke-width="4" fill="none">
<title>PlayBorder</title>
</path>
<path d="M237.0,-474.3999999999999 L905.6666666666666,-474.3999999999999" stroke-width="2" stroke="black" />
<text x="247.0" y="-464.3999999999999" font-size="30" fill="black" dy="1em">1st:</text>
<text x="247.0" y="-434.3999999999999" font-size="30" fill="black" dy="1em">2nd:</text>
<text x="247.0" y="-404.3999999999999" font-size="30" fill="black" dy="1em">3rd:</text>
<text x="247.0" y="-374.3999999999999" font-size="30" fill="black" dy="1em">4th:</text>
<text x="247.0" y="-344.3999999999999" font-size="30" fill="black" dy="1em">PAT:</text>
<text x="407.0" y="-464.3999999999999" font-size="30" fill="black" dy="1em">Total:</text>
<text x="407.0" y="-434.3999999999999" font-size="30" fill="black" dy="1em">Strong right:</text>
<text x="407.0" y="-404.3999999999999" font-size="30" fill="black" dy="1em">Strong left:</text>
<text x="407.0" y="-344.3999999999999" font-size="30" fill="black" dy="1em">vid#:</text>
<path d="M297.0,-544.3999999999999 L845.6666666666666,-544.3999999999999" stroke-width="3" stroke="black" />
<path d="M297.0,-619.9999999999999 L845.6666666666666,-619.9999999999999" stroke-width="2" stroke="gray" />
<path d="M297.0,-695.5999999999999 L845.6666666666666,-695.5999999999999" stroke-width="2" stroke="gray" />
<text x="845.6666666666666" y="-619.9999999999999" font-size="30" dy="0.4em">5</text>
<text x="845.6666666666666" y="-695.5999999999999" font-size="30" dy="0.4em">10</text>
<path d="M905.6666666666666,-296.0 L1574.3333333333333,-296.0 L1574.3333333333333,-831.1999999999998 L905.6666666666666,-831.1999999999998 Z" stroke="black" stroke-width="4" fill="none">
<title>PlayBorder</title>
</path>
<path d="M905.6666666666666,-474.3999999999999 L1574.3333333333333,-474.3999999999999" stroke-width="2" stroke="black" />
<text x="915.6666666666666" y="-464.3999999999999" font-size="30" fill="black" dy="1em">1st:</text>
<text x="915.6666666666666" y="-434.3999999999999" font-size="30" fill="black" dy="1em">2nd:</text>
<text x="915.6666666666666" y="-404.3999999999999" font-size="30" fill="black" dy="1em">3rd:</text>
<text x="915.6666666666666" y="-374.3999999999999" font-size="30" fill="black" dy="1em">4th:</text>
<text x="915.6666666666666" y="-344.3999999999999" font-size="30" fill="black" dy="1em">PAT:</text>
<text x="1075.6666666666665" y="-464.3999999999999" font-size="30" fill="black" dy="1em">Total:</text>
<text x="1075.6666666666665" y="-434.3999999999999" font-size="30" fill="black" dy="1em">Strong right:</text>
<text x="1075.6666666666665" y="-404.3999999999999" font-size="30" fill="black" dy="1em">Strong left:</text>
<text x="1075.6666666666665" y="-344.3999999999999" font-size="30" fill="black" dy="1em">vid#:</text>
<path d="M965.6666666666666,-544.3999999999999 L1514.3333333333333,-544.3999999999999" stroke-width="3" stroke="black" />
<path d="M965.6666666666666,-619.9999999999999 L1514.3333333333333,-619.9999999999999" stroke-width="2" stroke="gray" />
<path d="M965.6666666666666,-695.5999999999999 L1514.3333333333333,-695.5999999999999" stroke-width="2" stroke="gray" />
<text x="1514.3333333333333" y="-619.9999999999999" font-size="30" dy="0.4em">5</text>
<text x="1514.3333333333333" y="-695.5999999999999" font-size="30" dy="0.4em">10</text>
<path d="M1574.3333333333333,-296.0 L2243.0,-296.0 L2243.0,-831.1999999999998 L1574.3333333333333,-831.1999999999998 Z" stroke="black" stroke-width="4" fill="none">
<title>PlayBorder</title>
</path>
<path d="M1574.3333333333333,-474.3999999999999 L2243.0,-474.3999999999999" stroke-width="2" stroke="black" />
<text x="1584.3333333333333" y="-464.3999999999999" font-size="30" fill="black" dy="1em">1st:</text>
<text x="1584.3333333333333" y="-434.3999999999999" font-size="30" fill="black" dy="1em">2nd:</text>
<text x="1584.3333333333333" y="-404.3999999999999" font-size="30" fill="black" dy="1em">3rd:</text>
<text x="1584.3333333333333" y="-374.3999999999999" font-size="30" fill="black" dy="1em">4th:</text>
<text x="1584.3333333333333" y="-344.3999999999999" font-size="30" fill="black" dy="1em">PAT:</text>
<text x="1744.3333333333333" y="-464.3999999999999" font-size="30" fill="black" dy="1em">Total:</text>
<text x="1744.3333333333333" y="-434.3999999999999" font-size="30" fill="black" dy="1em">Strong right:</text>
<text x="1744.3333333333333" y="-404.3999999999999" font-size="30" fill="black" dy="1em">Strong left:</text>
<text x="1744.3333333333333" y="-344.3999999999999" font-size="30" fill="black" dy="1em">vid#:</text>
<path d="M1634.3333333333333,-544.3999999999999 L2183.0,-544.3999999999999" stroke-width="3" stroke="black" />
<path d="M1634.3333333333333,-619.9999999999999 L2183.0,-619.9999999999999" stroke-width="2" stroke="gray" />
<path d="M1634.3333333333333,-695.5999999999999 L2183.0,-695.5999999999999" stroke-width="2" stroke="gray" />
<text x="2183.0" y="-619.9999999999999" font-size="30" dy="0.4em">5</text>
<text x="2183.0" y="-695.5999999999999" font-size="30" dy="0.4em">10</text>
</svg>